<svg xmlns="http://www.w3.org/2000/svg" viewBox="0 0 342.72 342.72"><defs><style>.cls-1{fill:#b8860b;}.cls-2{fill:#fff;}</style></defs><g id="Layer_2" data-name="Layer 2"><g id="Layer_1-2" data-name="Layer 1"><rect class="cls-1" width="342.72" height="342.72"/><path class="cls-2" d="M75.8,65.84l9.46-18.77L70.13,49.91,55,52.75,45.53,71.51l15.14-2.84Z"/><path class="cls-2" d="M42.69,136.56a14.11,14.11,0,0,0,5.36,1.18,12.91,12.91,0,0,0,4.1-.63,26.37,26.37,0,0,0,12.62-7.89l1.86,27.11-.45,2.7.63-.07V159l0-.08q4.33-.47,10-1.34,6.06-.95,11.9-2.21a52.32,52.32,0,0,0,9.12-2.7l-.44,2.86,36.42-7.88q8.35-2.37,17.58-4.66t18.14-4.81a120.82,120.82,0,0,0,16.32-5.83,26,26,0,0,1-2.21,4.57c-.21.42-.61,1.26-1.18,2.52a15.2,15.2,0,0,0-1.19,3.71,2.58,2.58,0,0,0,.63,2.6c1.37,1.05,2.53.69,3.47-1.1q4.11-8.84,7.89-18.14t6.94-18.92q.15-.32-.24-.63a.48.48,0,0,0-.71,0,13.5,13.5,0,0,1-4.34,4.26,35.58,35.58,0,0,1-5.91,3q-4.89,1.91-11.35,3.79t-14.83,3.63q-16.23,3.47-30.82,6.54-9.81,2.07-20.58,4.1c.76-2.09,1.4-4,1.89-5.6.21-.21.26-.81.16-1.81s-.37-1.08-.79-.24a17,17,0,0,1-2.76,4.49,12.36,12.36,0,0,1-5,3.71,26.84,26.84,0,0,1-3.66,1.31l-.59.11v.06q-1.89.53-4.17,1-5.28,1-11,1.82c-2.72.38-5.22.7-7.53,1l.44-.81L75.65,95.79q0-10.25-5.84-12.61a5.39,5.39,0,0,0-1.42-.47,7.61,7.61,0,0,0-1.57-.16q-4.57,0-10.57,5.52a58,58,0,0,0-6.46,8.2A116.07,116.07,0,0,0,42,109a61.08,61.08,0,0,0-5.6,14.51q-.15,1.1-.39,2.13a8.62,8.62,0,0,0-.24,2,7.87,7.87,0,0,0,2,5.44A13.54,13.54,0,0,0,42.69,136.56Zm4.1-28.78a18.25,18.25,0,0,1,2.13-2.37c.79-.73,1.65-1.47,2.6-2.2a5.9,5.9,0,0,1,4.1-1.58c3.05,0,5,1.21,5.84,3.63a25.41,25.41,0,0,1,1.26,8.35c0,.53,0,1-.08,1.58s-.14,1-.24,1.58c-.84.21-1.65.39-2.44.55a12.34,12.34,0,0,1-2.45.23,14.46,14.46,0,0,1-6.7-1.49,9.36,9.36,0,0,1-4.18-3.87,4.37,4.37,0,0,1-.79-2.2A3.42,3.42,0,0,1,46.79,107.78Z"/><path class="cls-2" d="M84.47,181.57q-3.3,4.11-6.46,8.2L89.2,200.18l6.55-8.12q3.23-4,6.38-8.12L90.94,173.53Q87.79,177.48,84.47,181.57Z"/><path class="cls-2" d="M307,119.6a8.57,8.57,0,0,1-4.1,1.11,6.74,6.74,0,0,1-5.05-2.37,37.51,37.51,0,0,0-2-5.67c-.79-1.79-1.6-3.52-2.44-5.21a18,18,0,0,0-4.73-5.75,11.5,11.5,0,0,0-7.57-2.6,10.19,10.19,0,0,0-5.68,1.89,34.89,34.89,0,0,0-8.59,8.91A75.92,75.92,0,0,0,260.06,122q-2.93,6.47-5.13,12.46L240.74,137l-8,1.43L226.86,50.7l-9.93,18.45L223.08,159h0a14.29,14.29,0,0,0,1.73-.4,13.18,13.18,0,0,1,1.74-.39,1.1,1.1,0,0,0,.47-.08.76.76,0,0,1,.32-.08,44.35,44.35,0,0,1,5.52-1.26c1.89-.32,3.73-.63,5.51-.95v-.16c1.69-.31,3.26-.63,4.74-.94s2.83-.58,4.1-.79a22.47,22.47,0,0,1-.71,2.92,10.85,10.85,0,0,0-.56,3.07.84.84,0,0,0,.95.95,2.53,2.53,0,0,0,2.37-1.66,19,19,0,0,0,1.26-3.62,14.49,14.49,0,0,1,.94-2.92q12.46-3.15,23.1-5.44t22.32-5.92Zm-25.71,10.1-22.39,4.41q1.74-4.1,3.47-7.8a20.45,20.45,0,0,1,4.89-6.55,6.81,6.81,0,0,1,4.42-1.89,7.36,7.36,0,0,1,4.57,1.73,20.12,20.12,0,0,1,5.83,8.2,2.17,2.17,0,0,1,.16,1C282.21,129.17,281.9,129.49,281.26,129.7Z"/><path class="cls-2" d="M88.9,279.14q-2.93,3.64-5.73,7.28l9.93,9.23,5.8-7.2c1.92-2.38,3.8-4.79,5.67-7.21L94.64,272Q91.84,275.51,88.9,279.14Z"/><path class="cls-2" d="M182,212c0-.79.07-1.56.07-2.31a28.25,28.25,0,0,0-.21-3.5c-.14-1.12-.3-2.28-.49-3.49q-.56-2.94-1-6.09t-1-6.36q-1.53-9.51-5.31-12a9.13,9.13,0,0,0-5.32-1.54,9.77,9.77,0,0,0-3.35.56,22.93,22.93,0,0,0-6.65,3.64,45.29,45.29,0,0,0-6.08,5.59c-1.87,2.05-3.5,4-4.9,5.74q-2.65,3.5-5.45,7.13a28.39,28.39,0,0,0-4.34,8.11.12.12,0,0,1-.14.14c0,.47.42.7,1.26.7l.14-.14a2.85,2.85,0,0,0,2.1-.7l3.07-3.63a42.6,42.6,0,0,0,2.94-3.92,19.62,19.62,0,0,1,7.42-6.43,7.32,7.32,0,0,1,2.65-.7,5.58,5.58,0,0,1,3.78,1.46,8.57,8.57,0,0,1,2.24,2.73,52.61,52.61,0,0,1,4.33,13.36,84.33,84.33,0,0,1,1.4,15.74v2.3a19.11,19.11,0,0,1-.14,2.31,46.83,46.83,0,0,1-17.34,6.3c1.3-2.43,2.52-4.74,3.63-6.93s2.15-4.31,3.08-6.36a11.18,11.18,0,0,0,1.26-5,15.72,15.72,0,0,0-.91-4.75,18.29,18.29,0,0,0-2.45-5,4.52,4.52,0,0,0-3.77-2.17q-3.08,0-7.28,4.9-9.93,11.33-16.78,28.25L115.58,242c0-.09.07-.19.11-.28a39.11,39.11,0,0,0,1.89-5.46c0-.09,0-.42.07-1a4.37,4.37,0,0,0-.07-1.4c-.09-.37-.28-.23-.56.42a17.62,17.62,0,0,1-2.59,4,13.56,13.56,0,0,1-3.56,3,39.84,39.84,0,0,1-8.75,3q-5.1,1.19-10.42,1.89t-9.51.91q-4.2.19-6.15.2-12.18,0-18.82-1.95t-9.16-5.67a14.18,14.18,0,0,1-2.38-8.6,34.77,34.77,0,0,1,1.61-8.46,55.93,55.93,0,0,1,3.85-8.88c.65-1.59.53-2.57-.35-2.94s-1.7.05-2.45,1.26q-2.52,4-5,8.74t-4.9,10a30.23,30.23,0,0,0-2.66,12c0,4.47,1,8.14,2.94,11a20,20,0,0,0,7.48,6.57,36.72,36.72,0,0,0,9.37,3.29,61.24,61.24,0,0,0,8.82,1.19c2.65.14,4.54.21,5.66.21a93.53,93.53,0,0,0,12.24-.84A115.87,115.87,0,0,0,94.43,262a75.88,75.88,0,0,0,9.72-2.93c-.09.37-.16.69-.21,1a4.1,4.1,0,0,0-.07.7c0,.47.14.7.42.7h.14l.17-.19,0,.19c4.2-1.12,8.41-2.12,12.66-3s8.46-1.89,12.66-3v.14a1.11,1.11,0,0,1,.84-.28H133a50.22,50.22,0,0,0,18.19-2.94,40.63,40.63,0,0,0,13.22-8.25,68.94,68.94,0,0,0,10.28-12.31q6.28-9.65,7.13-17.48Q181.92,213.2,182,212Zm-43.15,26h-.14c-.37,0-.89-.35-1.54-1.05a3.08,3.08,0,0,1-1-2,4.33,4.33,0,0,1,.28-1.26c1.59-3.45,3.54-5.6,5.88-6.43a2.88,2.88,0,0,1,1-.15q2.79,0,4.75,5.6l.28.42A24,24,0,0,1,138.84,238Z"/><path class="cls-2" d="M233.46,212.15q2.86-3.57,5.67-7.21l-9.93-9.23-5.74,7.14q-2.94,3.63-5.73,7.27l9.93,9.23Z"/><path class="cls-2" d="M270.88,165.92l-10.35,16.5q.42,5.18.84,12t.77,14.2q.35,7.35.56,14.27t.21,12.24c-2.05.84-4.53,1.75-7.42,2.72a52.41,52.41,0,0,1-8.74,2.17,19.72,19.72,0,0,1-8.18-.28,5.89,5.89,0,0,1-3.64-3.07,10.9,10.9,0,0,1-1.26-5.18.88.88,0,0,0-.56-.7c-.28-.09-.65.14-1.11.7a36.11,36.11,0,0,0-4.27,9.3,24.12,24.12,0,0,0-.91,4.28,13.7,13.7,0,0,1-3.77,1.25q-10.37,1.68-21.34,2.44a126.27,126.27,0,0,0-20.77,3.15c-.93.28-1.4.65-1.4,1.12a1.14,1.14,0,0,0,.42.7q1.81,1.55,10.49,5.32l7.21,2.93a33.94,33.94,0,0,0,3.84,1.4,32.74,32.74,0,0,0,9.8,1.68,13.27,13.27,0,0,0,7.62-2,21.71,21.71,0,0,0,5.52-5.87c.93-1.52,2-3,3.14-4.56a9.4,9.4,0,0,0,4.56,4.7,12,12,0,0,0,7.2.91,34,34,0,0,0,7.83-2.24q3.86-1.6,6.37-2.87a35.13,35.13,0,0,0,11.61-9.51,36.15,36.15,0,0,0,6.57-14,46.29,46.29,0,0,0,1.33-6.85,44.07,44.07,0,0,0,.21-8.26Z"/><polygon class="cls-2" points="286.13 185.5 290.05 244.95 300.4 228.44 296.48 169 286.13 185.5"/></g></g></svg>