<?xml version='1.0' encoding='utf-8'?>
<svg xmlns="http://www.w3.org/2000/svg" width="31.25in" height="31.25in" clip-rule="evenodd" fill-rule="evenodd" image-rendering="optimizeQuality" shape-rendering="geometricPrecision" text-rendering="geometricPrecision" version="1.1" viewBox="0 0 31250 31250"> <defs> <style type="text/css">.fil0 {fill:#373F47}</style> </defs> <path class="fil0" d="m15620 6080.1c3244.2 0 5874 2629.9 5874 5874s-2629.9 5874-5874 5874-5874-2629.9-5874-5874 2629.9-5874 5874-5874zm0 14864-3872.1 7847.8-1513.8-4047.4-4125.4 1286.2 3704.4-7507.9-538.54-223.07-2628.3-6345.4 2628.3-6345.4 6345.4-2628.3 6345.4 2628.3 2628.3 6345.4-2628.3 6345.4-538.54 223.07 3704.4 7507.9-4125.4-1286.2-1513.8 4047.4-3872.1-7847.8zm-3757.9-9011.1h1735.1l864.77 1853.2 3180.9-5301.9h1735l-4163.9 6940.2h-1735l12.86-21.44h-10.47l-1619.3-3470.1zm3757.9-6714c3719.9 0 6735.4 3015.6 6735.4 6735.4 0 3719.9-3015.6 6735.4-6735.4 6735.4-3719.9 0-6735.4-3015.6-6735.4-6735.4 0-3719.9 3015.6-6735.4 6735.4-6735.4z"/> </svg>