<svg xmlns="http://www.w3.org/2000/svg" viewBox="0 0 410.74 212.79"><defs><style>.cls-1{fill:#f4cd27;}</style></defs><g id="Layer_2" data-name="Layer 2"><g id="Layer_1-2" data-name="Layer 1"><path class="cls-1" d="M293.51,120.84l8.07-3.54c.24.27.31.32.33.38.34,1.13.63,2.28,1,3.38,2.31,6.45,6.32,10.95,13.57,11.63a32.6,32.6,0,0,0,14.35-2c10.94-4,18.82-11.62,24.87-21.33a54.25,54.25,0,0,0,6.76-16.65c5.56.9,9.79-1.21,13.09-5.32,3.72-4.64,3.83-10,2.16-15.34-1.33-4.25-3.39-8.26-5.15-12.43,1.95-1.27,2.14-2.17.64-4.45A48.52,48.52,0,0,0,370.31,51c-1.78-2.18-3.7-4.17-6.56-5-1.9-.57-3-.14-3.38,1.85-.44,2.38-.72,4.81-1.32,7.15a4.14,4.14,0,0,0,.94,4c2.54,3.06,5.18,6.07,7.41,9.35,4.51,6.59,3.17,10.22-4.32,12.75-1.48.5-2.18.08-2.71-1.28-.83-2.12-1.75-4.21-2.69-6.3-2.73-6.06-7.63-8.75-13.49-7.12-4.92,1.36-7.61,5.12-9.17,9.71-2.65,7.81.56,15.08,7.83,17.09,3,.82,6.24.58,9.38.76a21.58,21.58,0,0,0,2.91-.26,10.52,10.52,0,0,1-.35,1.62c-6.38,14.09-17.2,22.77-32.3,25.84A12.22,12.22,0,0,1,308.7,114a2,2,0,0,1,.62-2.59c2.51-2.55,5.23-5.09,7-8.14,5.54-9.55,7-20.06,6.18-30.95a31.45,31.45,0,0,0-3.86-13.72,10.45,10.45,0,0,0-6.51-5.3c-1.1-.27-2.66-.61-2.55,1.3.24,4,.21,8,1.18,11.79C312,71,314.2,75.3,315.71,79.84c.81,2.43,2.63,4.89,1.32,7.6a71.61,71.61,0,0,1-5.07,9c-1,1.54-2.77,2.6-4.19,3.87l-.77-.52c.66-2.45,1.4-4.89,2-7.36a14.55,14.55,0,0,0,.07-3.1,35.34,35.34,0,0,0-3.55,1.74,2.72,2.72,0,0,0-.9,1.48c-.61,2-1.2,3.94-1.7,5.93-.92,3.66-1.79,7.11-5.56,9.29a151.78,151.78,0,0,1-27.19,12.7c-7.53,2.55-15.21,4.64-22.79,7a9.5,9.5,0,0,0-2.43,1.8c.92.47,1.84,1.34,2.75,1.33,5.88-.09,11.82.13,17.61-.68C275.1,128.57,284.35,125,293.51,120.84Zm57.88-37.16c-2.17-.19-4.31-.65-6.47-1-1-.57-1.94-.85-2.28-1.46a3.56,3.56,0,0,1-.42-2.73c.74-1.62,4-2.68,5.55-1.73A21.68,21.68,0,0,1,352.93,81C354.24,82.5,353.38,83.86,351.39,83.68Z"/><path class="cls-1" d="M216.39,34.42c6.7,7.65,13.88,14.88,20.85,22.29,8.69,9.25,16,19.28,18.76,32a3.64,3.64,0,0,1-1.21,3.91c-8.29,7.43-17.2,13.89-27.91,17.85a3.68,3.68,0,0,0-1,.31c-.79.67-1.53,1.39-2.3,2.1a9.59,9.59,0,0,0,2.64.86,52.83,52.83,0,0,0,20.2-3.17c8.73-3.27,16-8.41,19.64-17.34,3-7.39,3.79-15.29,4-23.2.39-14.91-2.38-29.49-4.69-44.12-.26-1.64-.45-3.29-.67-4.93,3.11-.34,3.92-1.19,3.43-3.54A30.76,30.76,0,0,0,261.2,3.32c-2.11-2.43-3.6-2.19-4.93.71a7.26,7.26,0,0,0-.77,2.75c-.17,4.41-.72,8.89-.22,13.23,1.58,13.53,3.61,27,5.39,40.52.77,5.85,1.6,11.73.51,17.62-.38,2.09-1,4.13-1.54,6.2-.82-2.93-1-5.73-1.48-8.47A52.31,52.31,0,0,0,246.49,51.6c-7-8.29-14.53-16.06-21.84-24.06L223,25.73c1.11-.64,2.23-.95,2.79-1.69a2.72,2.72,0,0,0,.24-2.54q-5-5.6-10.35-10.91A14.05,14.05,0,0,0,211.87,8c-1.51-.71-2.56-.56-3.2,1.55a62.79,62.79,0,0,1-3.82,8.86,20.92,20.92,0,0,1-2.28,3.1c2,1.34,3.67,2.49,5.35,3.67C211.42,27.68,213.64,31.27,216.39,34.42Z"/><path class="cls-1" d="M277.07,40.05c.86,13.31,1.31,26.65,2,40,.3,5.67.79,11.33,1.17,17a68.08,68.08,0,0,1,.28,7.41c-.06,1.28,0,2.43,1.27,2.57a3.15,3.15,0,0,0,2.58-1.23,33.53,33.53,0,0,0,2.43-6.39c3.62-13.14,3.54-26.52,2.38-40.16-1.45-11.89-2.9-23.59-4.39-35.73.82.7,1.32,1.2,1.89,1.6s1.43.86,2.15,1.28a13.63,13.63,0,0,0,1.41-2.87,5.22,5.22,0,0,0-.41-2.37C288,14.67,284.61,9,280.8,3.49a3,3,0,0,0-5.27.29,13.77,13.77,0,0,0-2.09,6c-.27,4.81-1,10,.3,14.4A71.77,71.77,0,0,1,277.07,40.05Z"/><path class="cls-1" d="M29.54,141.82l-8.79,22.5c-.59-1.24-.93-1.89-1.22-2.56-2.66-6.23-5.31-12.47-8-18.69-.22-.52-.74-1.28-1.16-1.3-2.22-.13-4.45-.06-6.84-.06.39,1,.61,1.63.86,2.43C3.11,153.76,2.47,163.31,0,172.58H5.42C4.69,164,7.15,156,8,147.71A3,3,0,0,1,9,149q3.89,9.27,7.74,18.56c.91,2.18,1.91,4.29,4.37,5.74l10.05-25.61a82.69,82.69,0,0,1,2,13c.28,4,2,7.89.16,11.83h6.91a209,209,0,0,1-4.14-30.67Z"/><path class="cls-1" d="M181.18,172.57h7c-.49-1.2-.93-2.26-1.38-3.51-.88-6.38-1.79-12.57-2.58-18.78-.35-2.73-.44-5.49-.68-8.59-1.63,0-3.75-.07-5.86.06-.45,0-1.07.7-1.27,1.2-2.41,6.18-4.76,12.38-7.15,18.57a22.6,22.6,0,0,1-1.24,2.27c-.63-1.23-1.07-2-1.4-2.75-2.44-5.76-4.84-11.54-7.31-17.29-.33-.75-.93-1.88-1.49-1.94a64.47,64.47,0,0,0-6.49-.09c1.14,5.61-.66,10.6-1.26,15.63s-.59,10.4-3.13,15.21h5.74c-.47-8.54,1.83-16.62,2.7-24.87a4.1,4.1,0,0,1,1.09,1.45c2.48,5.91,4.91,11.84,7.44,17.74,1,2.33,1.86,4.82,4.67,6.3,3.32-8.47,6.61-16.82,9.89-25.18l.78.08C179.64,156.26,182.05,164.26,181.18,172.57Z"/><path class="cls-1" d="M39.56,124.93A31,31,0,0,0,53,121.7c2.59-1.35,4.78-3.44,7-5.2a12.29,12.29,0,0,0-1.83,1A13.69,13.69,0,0,1,60,116.49h.17a.44.44,0,0,1,.17-.31c-.1.1-.13.19-.06.28.17-.16.24-.29.21-.38h0c.11,0,.11,0,.11,0a.43.43,0,0,1,.16-.27.18.18,0,0,0,0,.25c.16-.15.22-.28.19-.37h0c.11,0,.1-.08.1-.08.32-.47.67-.94,1-1.41a11.36,11.36,0,0,0-.9,1.36,11.21,11.21,0,0,0,1.52-2.1l-.34.39.32-.4c.15,0,.17,0,.17,0a41.49,41.49,0,0,1,4.07-5.51,32.79,32.79,0,0,0-3.93,5.46c4.35-4.16,8.37-8.49,12.81-12.33A48.21,48.21,0,0,1,97.83,90.1a87.2,87.2,0,0,0,14-4.49A11.63,11.63,0,0,0,119.14,77c.22-1,.4-2.27-.08-3a61.77,61.77,0,0,0-5.25-6.27,30.53,30.53,0,0,0,2.77,4.35,38.75,38.75,0,0,1-2.81-4.29.33.33,0,0,1,.08-.22,19.85,19.85,0,0,1-3.11-1.8,12.61,12.61,0,0,0,3.08,1.66c-3.89-4-8.12-7.11-13.93-6.75-2.16.13-4.42.33-5.65,2.46a52.78,52.78,0,0,1,5.91-1.59,44.24,44.24,0,0,0-5.83,1.61,1,1,0,0,1-.25-.07,10.46,10.46,0,0,1-.65,1,.4.4,0,0,1-.26-.12,27.5,27.5,0,0,1-1.88,2.38h-.16l-1.89,4.83a1.64,1.64,0,0,0-.1.38,1.64,1.64,0,0,1,.1-.38c.63-1.61,1.26-3.22,1.75-4.78-1.18,2.83-2.22,5.6-3.11,8.34A1.67,1.67,0,0,0,89,73.69,1.91,1.91,0,0,1,87.82,75a1.43,1.43,0,0,0-.14.79,27.61,27.61,0,0,1,1.15,4.75c.16,2.41-1.84,2.77-3.78,3.15h0c2-.37,4-.73,3.81-3.14a19.32,19.32,0,0,0-1.2-4.56c-.12,3,.78,6.15-2.61,7.7a.69.69,0,0,1-.17,0,17.24,17.24,0,0,1-2.34,2.91,11.58,11.58,0,0,0,2.18-2.88Q78.9,88.1,73.56,92.55a4.1,4.1,0,0,0,1.36-.44,4.35,4.35,0,0,1-1.35.45c-.16,0-.17,0-.17,0-1.12,1-2.24,2-3.48,3-.12,0-.14,0-.14,0a3.73,3.73,0,0,1-.67.59c-.13,0-.15,0-.15,0-.16.47-.19,1.15-.52,1.39q-2.13,1.53-4.32,3,2.19-1.5,4.32-3c.33-.24.36-.92.37-1.36-3.27,2.51-6.39,5-9.35,7.5l-.05,0c-.17,0-.17,0-.17,0-.34.31-.71.61-1.1.91a6,6,0,0,0,1-.9,6.24,6.24,0,0,0-1.5,1.29l.39-.27c-.13.09-.24.19-.38.28s-.17,0-.17,0a6.69,6.69,0,0,1-2.84,2.9A6.11,6.11,0,0,0,57.29,105c-2.15,1.45-4.15,2.87-6,4.32l-.15,0c-.25,0-.33.11-.33.11-2,1.35-4,2.75-6.14,4,2.09-1.29,4.1-2.69,6-4-4.14,2.17-8,4.78-12.66,5.14.38.13.77.29,1.15.43l-1.31-.48a3.29,3.29,0,0,0-1.21-.26c-.76-.26-1.8-.3-2.24-.83.44.53,1.48.57,2.16.7a4.32,4.32,0,0,1-2.22-4.21,59.12,59.12,0,0,1,1.52-8.82c1.26-4.31,4-8.32,2-13.25,5.87-1.26,8.54-5.69,11.06-10.27a3.11,3.11,0,0,0,.39-1.36,11.43,11.43,0,0,0-3.71-1.65,3.9,3.9,0,0,0-3.18,1,2.19,2.19,0,0,1-2.8.93,4.38,4.38,0,0,1-3.35-4.64A21.87,21.87,0,0,1,37.43,65c1.41-3.6,3.43-7,5-10.49a7.92,7.92,0,0,0,.16-2.82,25.46,25.46,0,0,0-3,.47c-.45.12-.81.63-1.18,1-7,6.64-9,15.17-8.77,24.35a9.73,9.73,0,0,0,5.2,8.69c.45.25.92.45,1,.49-2.32,3.69-4.59,6.72-6.23,10.06-3.2,6.48-4.56,13.37-1.6,20.29C31.13,124.31,33,125.16,39.56,124.93ZM106.7,76v0Zm-.92,1c.58-.34.87-.64.91-.89,0,.27-.26.56-.74.89Zm-6.1-4.7a7.19,7.19,0,0,0,1.69.41,3.83,3.83,0,0,1,2,0,2.51,2.51,0,0,0-1.59.12,23.78,23.78,0,0,0,3.49,1.85A2.74,2.74,0,0,0,104,72.88a2.58,2.58,0,0,1,1.36,1.6,2,2,0,0,0,.19.74,2.09,2.09,0,0,1,1.11.61,1.48,1.48,0,0,0-.88-.36,5,5,0,0,0,0,1.53h-.33A10.23,10.23,0,0,1,101,79a8.79,8.79,0,0,0,4.1-1.89c-.94.2-1.7.5-2.49.62-1.71.27-3.49.79-5.15.53-1-.15-2.62-1.58-2.59-2.36,0-1.07,1.27-2.29,2.28-3,.65-.48,1.84-.23,2.64-.42-.94-.14-1.73-.17-2.53-.23C98.09,72.23,98.88,72.26,99.68,72.3Zm3.95.45.32.13A1.79,1.79,0,0,0,103.63,72.75ZM63.82,100.69q-1.7,1.16-3.45,2.31C61.53,102.23,62.69,101.46,63.82,100.69Z"/><path class="cls-1" d="M57.49,140.92c-11.59,1.23-18.7,13.9-13.18,23.81,3.57,6.42,9.42,9.27,16.64,8.77,11.21-.77,19.22-10.58,15.06-22.79C72.28,143.33,66,140,57.49,140.92Zm11,25.63a11.87,11.87,0,0,1-19.69-4.86C47,156.05,48.25,150.18,52,147c4.8-4,13.52-4.21,17.74,3.09C72.78,155.84,72.18,162.82,68.51,166.55Z"/><path class="cls-1" d="M238.47,145a27.34,27.34,0,0,0-2.61-1.51c-6.4-3-13.17-1.32-19.47-1.76.24,2.26.61,4.25.63,6.25.09,5.83.1,11.66,0,17.49,0,2.35-.43,4.69-.67,7.11,3.15.69,14.24.29,17.45-.94,6-2.3,9.77-6.59,10.38-13.11C244.68,153.14,243.12,148.44,238.47,145ZM230,168.67a6.38,6.38,0,0,0-.82.33,35,35,0,0,1-5.44.12,2.2,2.2,0,0,1-1.52-1.47q-.15-10.26,0-20.53a2.13,2.13,0,0,1,1-1.63c5.18-2,12.75,1.3,14.6,6.4C240,158,239,166.41,230,168.67Z"/><path class="cls-1" d="M108.76,150.66c0-2.93.38-5.86.58-8.8H102.4c2.13,3.67,1,7.48,1.18,11.17,0,.34-1,1-1.48,1.05-4.57.08-9.15.09-13.72,0-.55,0-1.56-.94-1.55-1.43.06-3.61-.78-7.33,1.22-10.72H81.27a151.33,151.33,0,0,1,0,30.62H88a11.23,11.23,0,0,1-1.13-3c-.15-3.53-.15-7.08-.07-10.61,0-.42.89-1.17,1.38-1.18,4.65-.08,9.3,0,13.94-.05,1.14,0,1.58.45,1.55,1.58,0,2.06,0,4.13,0,6.41-.21,2.44-.42,4.66-.62,6.89h6.44a45.4,45.4,0,0,1-.75-5.48C108.67,161.58,108.66,156.12,108.76,150.66Z"/><path class="cls-1" d="M290.09,166.09c0-.37,0-.74,0-1.11v-8h-6.32c2.16,3.4,1.05,6.93,1.37,10.31.14,1.42-.52,2.15-1.82,2.15-3.06,0-6.23.37-9.14-.32-5.83-1.36-9.73-7.93-8.91-14.06.85-6.31,5.67-10.78,12-10.65,3.14.07,6.25,1,9.54,1.5a13.87,13.87,0,0,1,0-2c.22-1.75-.48-2.53-2.24-2.74-5-.6-10-.65-14.81,1.24-11,4.3-13.85,18.81-5.08,26.47,5.32,4.65,11.8,5.27,18.73,4.32C290.09,172.5,290.09,172.5,290.09,166.09Z"/><path class="cls-1" d="M373.37,143.17a2.68,2.68,0,0,0-1.64-1.41,44.57,44.57,0,0,0-5-.07c-.64,5.9-3.5,10.69-5.48,15.73S358,168,354.23,172.59h6.48a28.89,28.89,0,0,1,.49-4.26,38.7,38.7,0,0,1,2.09-5.81,2.67,2.67,0,0,1,1.87-1.31c2.13-.16,4.27,0,6.41-.05,5,0,3.84-.58,5.47,3.89.88,2.4,3,4.65,1.4,7.52h7.79c-4.84-7.69-7.21-16.31-10.85-24.56C374.69,146.28,374.13,144.67,373.37,143.17Zm-.63,14.36c-2.41.12-4.82.06-7.8.06,1.55-4,3-7.6,4.36-11.21l.53,0,3.81,9.51C373.4,156.72,373.09,157.52,372.74,157.53Z"/><path class="cls-1" d="M320.07,165.3c-1.32-3-2.5-6-3.79-9.14-1.83-4.52-3.58-8.9-5.41-13.24a2,2,0,0,0-1.3-1.15c-1.87-.14-3.75-.06-5.7-.06.7,3.17-6.4,21.35-11.87,30.87h7c-1.55-2.68,0-4.9.89-7.16,1.65-4.33,1.71-4.32,6.27-4.27,2.28,0,5.12-.71,6.68.38s2,4.05,3,6.19a1.59,1.59,0,0,1,.18.4c.2,1.43.39,2.86.6,4.44h7.09C322.42,170.1,321.16,167.74,320.07,165.3Zm-17.28-7.88c.4-1.17.76-2.26,1.12-3.34l2.95-7.44.65-.1,4.34,10.88Z"/><path class="cls-1" d="M128.87,161.15h.22c5.65,0,5.72,0,7.61,5.37.67,1.92,2.3,3.78.68,6h7.81c-4.86-8-7.39-16.92-11.15-25.45-.64-1.52-1.13-2.92-1.79-4.23a2.13,2.13,0,0,0-1.4-1.09c-1.86-.13-3.74-.06-5.08-.06-.56,6-3.56,10.76-5.44,15.83s-4.2,10.09-6.31,15.08h6.63c-2-2-.64-3.77-.08-5.49C122.53,161.12,122.58,161.14,128.87,161.15Zm-4.14-5.48c1.27-3.33,2.46-6.32,3.92-10,1.63,4.2,3,7.79,4.53,11.72h-8.83Z"/><path class="cls-1" d="M333.69,168.47c5.69-9.08,11.09-17.71,16.77-26.8h-18c-3.13,0-4.52,1.51-4.42,4.88,4.46-2.19,9.06-1.17,14.16-.86l-11.4,18.19-5.54,8.85c8.58,0,16.31,0,24.05,0a1.84,1.84,0,0,0,1.32-.91c.7-1.41,1.23-2.89,2.1-5C346.3,170.11,340.27,169.37,333.69,168.47Z"/><path class="cls-1" d="M200.31,169.09c-1.71-.12-2.68-.76-2.52-2.76a58,58,0,0,0,0-6.85c-.06-1.48.51-2,1.93-1.88,1.81.14,3.63.19,5.59.28v-3.63c-.49-.05-.84-.1-1.19-.12-2-.15-5,.45-5.84-.62-1.06-1.34-.34-4.06-.48-6.17-.11-1.55.53-2.18,2-2.07,2.78.21,5.57.4,8.55.61-.07-1.11-.16-2.54-.25-4H191.41c2.37,3.35,1.31,6.9,1.56,10.51-.41,6.86,1,13.6-1.16,20.38,6,0,12,0,17.92,0a1.14,1.14,0,0,0,.89-.49c.54-1.52,1-3.07,1.47-4.6l-.47-.39C208.11,169.7,204.21,169.36,200.31,169.09Z"/><path class="cls-1" d="M304.5,35.72c4.93-1.71,9.59-3.64,13.17-7.33,5.26-5.4,6-8.47,4.12-13.78-.69-1.91-1.76-3.53-4-4.07-2.41-.58-3.2,1.26-4.32,2.66a8.29,8.29,0,0,0-.92,1.24,50.17,50.17,0,0,0-2.95,6.09c-.64,1.82.21,3.12,2.3,3.43A22,22,0,0,1,315,25a19.18,19.18,0,0,1-2.45,1.83c-6.47,3.2-13,6.32-19.44,9.55a9.68,9.68,0,0,0-2,1.88l.59,1Z"/><path class="cls-1" d="M98,97.76c-2.37,2.82-4.81,5.59-7.38,8.22-5.83,6-13,9.77-20.76,12.66-1.86.7-3.56,1.66-4.34,3.74,3.27.41,11.3-1.63,17-4.3a32.92,32.92,0,0,0,13.54-11c1.76-2.48,2-2.57,4.33-.67.34.28.66.59,1,.87,2.26,1.82,3.14,1.67,5.72-1,1.54-1.58,1.73-3.25,0-4.82a64.93,64.93,0,0,0-6.3-4.33C99.61,96.33,98.92,96.72,98,97.76Z"/><path class="cls-1" d="M151,200.15a2.11,2.11,0,0,1-.72-1c-1.38-4.27-2.81-8.53-4.1-12.84-.81-2.68-1.6-3.08-4-1.92a21.49,21.49,0,0,1-.19,3.34c-.4,1.79-1,3.54-1.58,5.47-.81,2.38-1.54,4.6-2.27,6.82a2.2,2.2,0,0,1-1.1-1.26c-1.33-4.14-2.63-8.29-4-12.42-.9-2.75-1.87-3.09-4.52-1.75A36.58,36.58,0,0,1,130.1,188c1.54,4.69,3,9.41,4.51,14.1a6.4,6.4,0,0,0,4.3,4.29c1.63-5.19,3.24-10.26,5-15.92,1.4,4.28,2.58,7.92,3.78,11.55a5.87,5.87,0,0,0,4.35,4.34c2.27-7.41,4.49-14.7,6.8-22.22h-3.69C155.32,190,152.56,194.93,151,200.15Z"/><path class="cls-1" d="M70,45.18c2.81-.83,5.63-1.67,8.36-2.73,3.26-1.26,2.87-3.52,1-5.74C76.83,33.9,73.5,33,69.89,33.15a6,6,0,0,0-6,6.24c0,1.6-.27,3.2-.34,4.8a27.85,27.85,0,0,0-.07,5.91c.84,4.84,2.15,9.61,2.93,14.46.4,2.53.07,5.18.07,7.86a6.59,6.59,0,0,0,3.69-5.92,55,55,0,0,0-.74-6.74c-.9-3.22-1.8-6.26-2.59-9.32C65.88,46.73,66.22,46.28,70,45.18Zm.47-7a17.05,17.05,0,0,1,2.11,1.06l-.13.62H68.2L68,39.08Z"/><path class="cls-1" d="M217.16,116c.23-.36.37-1.14.17-1.33a38.2,38.2,0,0,0-4.66-3.88,2.44,2.44,0,0,0-2.34.4c-1.51,2.06-3.26,1.76-5.08.82-2.54-1.31-4.9-1.32-7.21.47s-4.82,3.41-7,5.4c-4.82,4.44-9.5,9-14.19,13.63a12.19,12.19,0,0,0-1.49,2.35,14.91,14.91,0,0,0,2.86-.32,6.8,6.8,0,0,0,2.28-1.32c2.38-2,4.66-4.05,7-6,3.15-2.64,6.28-5.32,9.6-7.73a3.81,3.81,0,0,1,3.37.09c2.74,1.63,2.66,1.76,5.25-.49a3.7,3.7,0,0,1,4.94.66c1.7,1.71,2.84,1.67,4.45-.07A17.09,17.09,0,0,0,217.16,116Z"/><path class="cls-1" d="M398.89,169.12c-1.9-.09-2.71-.78-2.67-2.84.14-5.9,0-11.8.1-17.7,0-2.23.46-4.44.71-6.75h-6.39c.26,2.36.7,4.64.74,6.92.1,6,0,11.95,0,18.14-.3,2-.6,3.86-.93,5.84,5.71,0,11.46,0,17.2,0a1.76,1.76,0,0,0,1.34-.84c.67-1.49,1.16-3,1.72-4.59C406.88,169.5,402.9,169.33,398.89,169.12Z"/><path class="cls-1" d="M339.32,24.73a26,26,0,0,0,13.25-10.87c2.5-4.16,1.88-6-1.95-9.22A6.79,6.79,0,0,0,348,3.13a2.71,2.71,0,0,0-2.33.55,88.16,88.16,0,0,0-5.1,7.73c-1.1,1.9-.26,3.46,1.92,4,1.1.26,2.22.42,4,.74A79.71,79.71,0,0,1,328,25.61c-2.1.56-4.31.73-4.51,3.79a14.12,14.12,0,0,0,2.69-.29C330.55,27.71,335,26.43,339.32,24.73Zm3.46-14.35,3.93-3.61c1.73-.94,3-.4,3.67.83a4.26,4.26,0,0,1,.26,2.85c-.08.35-1.34.61-2.05.57C346.92,11,345.25,10.67,342.78,10.38Z"/><path class="cls-1" d="M69.23,26c2.41-3.86,4.43-8,9.32-9.55.79-.25,1.52-2.41,1.34-3.52A4.19,4.19,0,0,0,77.43,10c-1-.21-2.38.91-3.33,1.76a36.6,36.6,0,0,0-2.57,3.29c-1.42,1.62-3.17,2.79-5.43,2.1s-2-2.64-2.22-4.39c0-.06-.1-.11-.22-.24-1.6,0-3.27,0-5.14,0-.74,0-1.28.08-2.12.15,3.22,5.89,8.09,10.5,9.75,17.48C67.35,28.56,68.39,27.35,69.23,26Z"/><path class="cls-1" d="M352.57,32.42c2,2.52,3.95,5,6.05,7.68l10-8.4c-2.74-3.35-5.34-6.52-8-9.82-1.12-1.22-1.77-.4-2.45.31q-2.64,2.8-5.32,5.6C350.71,30,350.69,30,352.57,32.42Z"/><path class="cls-1" d="M233,133.56a38.5,38.5,0,0,0-3.73,1.91,11.19,11.19,0,0,0-1.9,2.18l.57.59a28.67,28.67,0,0,0,13.64-7.3,80.29,80.29,0,0,0,5-7.91c1-2.09,0-3.92-2.07-4.88a8.82,8.82,0,0,0-9.88,2.2,7.91,7.91,0,0,0-.82,10C234.75,131.79,234.44,132.78,233,133.56Zm2.83-8.4a12.4,12.4,0,0,1,2.68-3.55c.59-.49,1.84-.19,2.78-.25,2.32,1.83.94,3.3-.11,4.66-1.17,1.51-2.77,2-4.48.91C236.2,126.6,235.63,125.51,235.82,125.16Z"/><path class="cls-1" d="M135,28.91c.39-3.27.8-6.54,1.16-9.81.38-3.46.63-6.93-1.25-10.1a4.8,4.8,0,0,0-5-2.54c-1.94.34-2.11,2.39-2.41,4.06a4.32,4.32,0,0,0,0,.64c.14,7.9,3.31,14.79,5.38,22.18C134.92,32.19,134.78,30.48,135,28.91Z"/><path class="cls-1" d="M98.94,202.14a25.1,25.1,0,0,1,.24-6.49c.08-.36,2.93-.1,4.5-.14a1,1,0,0,0,.38-.16c.36-2.86.32-2.91-2.45-2.86s-2.94-.08-2.92-3c0-.22,0-.45,0-.67-.15-1.67.55-2.54,2.29-2.36s3.28.37,5.55.63c-.54-1.24-.9-3-1.37-3-3.48-.23-7-.13-10.12-.13,0,6.84,0,13.22-.05,19.76-.16.65-.26,1.13-.41,1.84,3.49,0,6.79,0,10.09,0s3.59-.25,3.77-3.12c-2.67.14-5.4.33-8.12.4C99.84,202.86,99,202.41,98.94,202.14Z"/><path class="cls-1" d="M183.29,199.47c0-4.84,0-4.84,4.75-4,.11,0,.25-.1.42-.18v-2.54c-.53-.05-.89-.11-1.25-.12-4.16-.13-4.11-.12-3.94-4.31.06-1.38.64-1.9,1.88-1.81,1.72.11,3.44.29,5.38.47-.07-.95-.13-1.87-.22-3H182.5l-3,.28v21.31h10.18c2.79,0,3.23-.49,3.26-3.07l-9.61.6Z"/><path class="cls-1" d="M293.71,203.13c-4.09.19-4.22,0-4.2-4,0-4.52.08-4.57,4.83-3.66.86-2.64.71-2.86-1.82-2.87-3,0-3,0-3-3,0-.45,0-.89,0-1.33-.12-1.37.57-1.9,1.85-1.79,1.72.16,3.43.34,5.14.51.43-3.09.38-3.15-2.48-3.09-1.33,0-2.66,0-4,.07-1.58,0-3.15.14-4.37.2v21.42h10.42c2.6,0,3.13-.66,3-3.36A42.4,42.4,0,0,1,293.71,203.13Z"/><path class="cls-1" d="M363.12,193.11c-1.7-2.75-3.14-5.14-4.64-7.48-1.18-1.86-2.93-2.23-4.93-1.2l4.66,7.38c3.69,4.08,3,8.79,2.27,13.52h4.85c-1.13-4.23-1.86-8.13,1-11.92,2.14-2.84,4-5.94,6.14-9.25h-4.9C367.91,188.14,365.09,190.16,363.12,193.11Z"/><path class="cls-1" d="M255.73,202.92c-1.28.08-1.62-.52-1.61-1.72,0-5.64,0-11.29,0-17.25l-3.52.21v21.41c3.1,0,6.7,0,10.3,0,2.17,0,3-1.15,2.68-3.06C260.93,202.64,258.33,202.76,255.73,202.92Z"/><path class="cls-1" d="M220.11,202.86c-.46,0-1.33-.76-1.34-1.17-.09-5.78-.06-11.55-.06-17.7l-4,.19a29.94,29.94,0,0,1,.39,3.26q.06,7.4,0,14.8a12.17,12.17,0,0,1-.53,2.51,3.47,3.47,0,0,0,1.8.78c3,.07,6,.05,9.06,0,2.25,0,3-1,2.71-3.05C225.45,202.65,222.78,202.85,220.11,202.86Z"/><path class="cls-1" d="M59.25,184.15v21.27c-.74,2.65-1.49,5.08-2.19,7.37,3.49-.11,5.69-2.26,5.7-6.11,0-7.49,0-15,0-22.75Z"/><path class="cls-1" d="M148.27,99c1.54-1.94,2.77-4.11,3.9-5.8,1.27,2.68,2.6,5.49,3.94,8.12l.06.2c0,.25.07.33.07.33h2.28a10.52,10.52,0,0,0-2.28.16c1.13,1.23,2.08,2.64,3.41,3.32,4.27,2.18,8.82,2.1,13.29.72,3.42-1,6.81-2.35,9-5.38-2.48,1-4.47,2.93-7.32,2.56,2.85.37,4.84-1.58,7.31-2.59l.21.06c.19-1,.39-2,.59-2.93a19.52,19.52,0,0,0-.45,2.91,16.14,16.14,0,0,0,2-1.6c2.18-2.19,3.14-2,4.14,1,1.62,4.87,5.74,7,10.83,5.78,4.13-1,7.55-3.22,10.86-5.7,2.68-2,2.67-2,5,.37a18.87,18.87,0,0,0,2.59,2.39c1.67,1.2,3.48,1.93,5.58,1a13.63,13.63,0,0,0,8.54-12.23,14.39,14.39,0,0,0-2.13,3.11c.34-1.05,1.38-2,2.19-3.25a1.7,1.7,0,0,0,.15-.84,23.17,23.17,0,0,1-.42-2.3,7.6,7.6,0,0,0,.53,2.16,32.3,32.3,0,0,0-1.44-14.49,3.08,3.08,0,0,0-2.06-1.74c-1.69-.28-2.87.51-2.69,2.5.29,3.36.65,6.71.88,10.08.14,2-.45,4-2.37,4.85a5.13,5.13,0,0,1-5.66-.88.66.66,0,0,0-.05-.15c-.05-.34-.1-.4-.15-.46a5.8,5.8,0,0,1-1.14-1.58,3.35,3.35,0,0,0,1.16,1.41,55.58,55.58,0,0,0-1.42-6.39c-.77-2.34-2.79-2.72-4.38-.9a21.11,21.11,0,0,0-2.48,3.79c.76-.62,1.26-1.43,2-1.92-.71.49-1.21,1.3-2,1.93-.16,0-.16,0-.16,0-.19,1.09-.38,2.17-.54,3.1-1,.62-2.08,1.24-3.28,1.83-.17,0-.14-.07-.14-.07a1.09,1.09,0,0,1-.31.43c.17-.14.24-.29.18-.41-.19.16-.26.3-.21.43l-.16,0c-.08.46,0,1.16-.27,1.34.27-.18.19-.88.13-1.3-1.07.64-2,1.33-2.94,1.82-4.53,2.26-8.36.49-9.28-4.47a46.94,46.94,0,0,1-.3-6.83c-.07-1.84-1.29-2.95-2.88-2.16-2.78,1.38-5.74,2.79-7.31,5.67-3.75,6.85-11.42,10.32-18.48,8.34,2,1,4,1.88,6,2.74-2-.86-4-1.71-6-2.73,0-.17,0-.14,0-.14a1.19,1.19,0,0,1-.26-.12.26.26,0,0,0,.21,0,.49.49,0,0,0-.4-.17l-.11-.1a1.05,1.05,0,0,0-.5-.37c-.79-.46-2-.76-2.28-1.42.24.66,1.49,1,2.22,1.28-3-3.4-3.66-7.49-3.88-11.64-.53-9.71-.86-19.44-1.42-29.16a96.52,96.52,0,0,0-1.38-10.33c-.09.42-.18.81-.24,1.19.06-.4.16-.84.27-1.35a1.58,1.58,0,0,0,0-.87c-.41-.49-1.11-1-1.17-1.49.06.53.76,1,1.21,1.3-.55-4.34-1.15-8.49-1.87-12.51-.18.26-.28.41-.26.54,0-.13.08-.28.29-.69a1.65,1.65,0,0,0,0-.88c-.38-.53-1-1-1.09-1.59a3,3,0,0,0,1.13,1.41c-1.05-6-2-11.88-3.28-17.67a37.17,37.17,0,0,0-2.79-7.84c-1.05-2.25-2.19-2.3-3.41-.24a32.1,32.1,0,0,0-2.46,6c1.07-1.69,1.91-3.41,2.87-5.06-1,1.65-1.8,3.37-2.88,5.13-.19.07-.07.13-.07.13-.26,3.08-.87,6.18-.7,9.24-.17-3.06.44-6.16.57-9.12a60.36,60.36,0,0,0-1.12,7.77c-.47,10,1.39,19.81,3,29.62a58.63,58.63,0,0,0,1.61,6.92c0,.06,0,.12,0,.18a1.55,1.55,0,0,0,0,.87c.37.52,1,1,1.08,1.59a2.92,2.92,0,0,0-1.11-1.41c.77,6,1.58,11.86,2.38,17.69.75,5.47-.6,10.42-3.79,15.49,0-1.09,0-1.65,0-2.2-.26-4.7-.13-9.46-.88-14.08-1.39-8.55-6.18-15.33-12.28-21.26-5-4.88-10.18-9.63-15-14.66-3-3.09-5.55-6.59-8.42-10l5.27-3.79A87.26,87.26,0,0,0,106,14,102.65,102.65,0,0,0,95.31,7.58a3.06,3.06,0,0,0-2.85.72,27.25,27.25,0,0,0-4,6c-1.56,3.44-.76,6.23,2.11,8.68,1,.85,2.2,1.48,3.27,2.26a22.12,22.12,0,0,1,3.8,2.94c3.9,4.41,7.59,9,11.48,13.44C115.6,49,122.32,56,128.56,63.45c5.94,7.09,11.17,14.68,12.8,24.13.1.62,1,1.11,1.68,1.86-1,1.35-2.39,3.08-3.57,4.82.53-.19,1-.31,1.26-.62-.22.31-.73.43-1.23.64-.14,0-.17-.06-.17-.06a14.9,14.9,0,0,1-1.84,3,10.08,10.08,0,0,0,1.69-2.94c-3,2.51-5.89,5-8.6,7.51a9.82,9.82,0,0,0,2.68-1.12,10.74,10.74,0,0,1-2.65,1.14c-.15,0-.15-.09-.15-.09-.49.36-1,.72-1.48,1.06a16,16,0,0,0,1.32-1.05,19.74,19.74,0,0,0-2.55,1.79c-.12.07-.24.15-.37.21a1.5,1.5,0,0,0-.81.38,16.66,16.66,0,0,1-2.63,2.36,11.07,11.07,0,0,0,2.47-2.35c-5.67,2.62-11.2,5.19-16.68,7.87-.72.35-1.17,1.26-1.75,1.91.81.45,1.67,1.37,2.4,1.27,5.52-.78,11.14-1.32,16.49-2.77C135.26,110.1,142.73,106,148.27,99Zm35.56-8.92a.4.4,0,0,1,0,.11,1.1,1.1,0,0,0-.37.25Zm-.11.39a.68.68,0,0,1-.12.12Zm25.05,4-.12-.12Zm-.4-.23a1.25,1.25,0,0,0,.25.38l-.36-.38A.41.41,0,0,1,208.37,94.2Zm-46.11,2.89-.12-.12Zm-.4-.23a1.1,1.1,0,0,0,.25.37l-.36-.38Z"/><path class="cls-1" d="M337.79,204.32a15.2,15.2,0,0,1-1.31-.94c-.24-.29-.32-.41-.41-.53a2.86,2.86,0,0,1-.53-.36c-.26-.23-.34-.35-.36-.5a3.19,3.19,0,0,1-.52-.39c-.25-.25-.33-.37-.35-.53a13.62,13.62,0,0,1-1.26-1.31l-.51-.92a24.24,24.24,0,0,1-1.83-2.37c0-.15-.09-.14-.09-.14a3.58,3.58,0,0,1,0-1.62c1.28-1.06,2.31-2,3.34-2.91.16-.55.32-1.09.57-1.88a7.62,7.62,0,0,0,.12-1.22l-.51-1.28c-.17-.47-.24-.72-.32-1-.15,0-.26-.11-.47-.37A.61.61,0,0,0,333,186l-.12.12c1.08,3.16.7,5.21-1.25,6.95,1.95-1.74,2.33-3.79,1.09-6.95-.29-.22-.46-.38-.64-.54,0,0,0,0,0,0a8.47,8.47,0,0,1-1.45-.67.59.59,0,0,0-.54-.19c-2.34,0-4.47.06-6.61,0a61.83,61.83,0,0,0,6.5-.14c-3-.16-6.14-.16-9-.16.41,7.15,1.06,14.14-.19,21.13a37.25,37.25,0,0,0,4.5-.21,47.45,47.45,0,0,1-.64-5.16c-.09-4.56-.06-9.11-.08-13.67-.2.14-.54.29-.7.43.16-.15.52-.3.78-.49a1.68,1.68,0,0,0,.33-.33c.31-.06.62-.11,1-.15a6.08,6.08,0,0,0-.77.16,8.65,8.65,0,0,0,1.76-.22h.32a5.81,5.81,0,0,0,1.26.22,3,3,0,0,1,.45.12.71.71,0,0,0-.38,0,1.14,1.14,0,0,0,.73.2l.15.12a8.29,8.29,0,0,0,1.25,1.3c.08.28.17.56.25.85l-.22-.69a15,15,0,0,0,.49,2c0,.15,0,.3.05.46a9.74,9.74,0,0,0-1,1.88c-1.09.44-2.11,1.22-3.26,1.59s-1.19,1.06-.74,2.13c0,.16,0,.17,0,.17a13.47,13.47,0,0,1,.87,1.18.51.51,0,0,1,0,.17c.29.34.58.68,1,1.21l.34.59a13.61,13.61,0,0,1,1.42,1.9c0,.19.1.1.1.1a7.91,7.91,0,0,1,1.06,1,2.7,2.7,0,0,1,.14.4l1.76,1.75c.25.26.35.37.44.48l1,.39c1.48.13,2.68.15,3.89.17a2.86,2.86,0,0,0-.15-.8C337.93,204.54,337.84,204.45,337.79,204.32Z"/><path class="cls-1" d="M206.29,91.55a37.38,37.38,0,0,0,3.29-1.81,25.58,25.58,0,0,0,.4-3A50.29,50.29,0,0,0,206.29,91.55Z"/><path class="cls-1" d="M73.25,92.56a38.44,38.44,0,0,0-3.37,3A38.44,38.44,0,0,0,73.25,92.56Z"/><path class="cls-1" d="M91.28,66.41A14,14,0,0,0,93,64.07,13.44,13.44,0,0,0,91.28,66.41Z"/><path class="cls-1" d="M93.93,63.18a1.44,1.44,0,0,0-.6.89A1.49,1.49,0,0,0,93.93,63.18Z"/><path class="cls-1" d="M69.64,95.51q-.48.3-.54.57Q69.58,95.78,69.64,95.51Z"/><path class="cls-1" d="M333,185.85c0-.19,0-.26-.18-.33h-.72a2.64,2.64,0,0,0,.67.51C333,186,333,186,333,185.85Z"/><path class="cls-1" d="M332.08,185.39a2.57,2.57,0,0,0-1.3-.49A2.67,2.67,0,0,0,332.08,185.39Z"/></g></g></svg>
