<svg xmlns="http://www.w3.org/2000/svg" viewBox="0 0 471.44 219.32"><defs><style>.cls-1{fill:#af8a4d;}</style></defs><g id="Layer_2" data-name="Layer 2"><g id="Layer_1-2" data-name="Layer 1"><path class="cls-1" d="M44.81,64.82a62.37,62.37,0,0,1-16,5.7,49.55,49.55,0,0,0-9.66,2.94c-.77.32-1.51.66-2.22,1a23.37,23.37,0,0,0-7.25,4.92l.43,2.73v0a2.25,2.25,0,0,0,.13.76l.27,1.74L12.21,96c.17,1.37.3,2.8.38,4.29s.13,3,.13,4.42a67.09,67.09,0,0,1-.51,8.4c-.34,2.69-2.45,9-3.27,9s-2.65-9.89-3.45-14Q4.44,102.84,3.27,97.8c-.22-2.72-.36-5.53-.41-8.45A59.45,59.45,0,0,1,4.4,75.64,71.15,71.15,0,0,1,8.11,64a18.73,18.73,0,0,1,6.4-6.21,50.38,50.38,0,0,1,8.59-3.65q3.58-1.29,7.43-2.31t7.56-2.18l4.36-9.74a28,28,0,0,1,1.79-3.33A13.64,13.64,0,0,1,46,34.26a6.24,6.24,0,0,1,4-2,20.23,20.23,0,0,1,5.63-.65h1.41c2.82,0,4.91.52,6.28,1.54s1.84,2.78,1.41,5.26a60.34,60.34,0,0,1-2.88,9.54,26.38,26.38,0,0,1-4.68,7.63A43.81,43.81,0,0,1,44.81,64.82ZM176.28,34a3.52,3.52,0,0,1,1.8-.64,27.23,27.23,0,0,1,2.81-.13,45.17,45.17,0,0,1,4.81.26c1.58.17,3,.38,4.28.64a25.21,25.21,0,0,1-3.58,2.31q-1.92,1-4.23,2.18c-5.21,2.56-8.58,6.19-8.33,6.53s18.9-1.36,24.86-12a14.39,14.39,0,0,0,1.8-6.28,5.08,5.08,0,0,0-1.41-4q-2.31-2.31-10.9-2.69H186c-4.44,0-7.3.76-8.59,2.3a39.75,39.75,0,0,0-2.76,3.91,24.62,24.62,0,0,0-2,4c-1.19,2.91-1.62,5.94-1.28,6.28C171.92,37.12,176,34.26,176.28,34Zm-83,57.66a67.44,67.44,0,0,0,20.57-12.75A46.46,46.46,0,0,0,127,58.73,66.65,66.65,0,0,1,134,44l2.56,51.64c0,.68,2.29.3,3.26.1l.06-.08a1.3,1.3,0,0,0,.39,0L169,89.35q9.09-2.68,19-4.93a125.84,125.84,0,0,0,18.32-5.58,47.34,47.34,0,0,0-1.92,6.22c4.25-2,10.36-8.09,12.37-13.13.39-1,.78-2,1.15-3,0,0,0,0,0,0q.44-1.11.84-2.22a1.72,1.72,0,0,0,.07-.21,91.31,91.31,0,0,0,3.12-10.71,109.6,109.6,0,0,1-18.72,7.23l-.13,0q-6.56,2-13.89,3.47-12.1,2.43-23.51,4.87l-10.51,2c-2,.34-4.15.73-6.28,1.16L147,75l-1.1-33.27,0-.67c0-.44,0-.86,0-1.27-.48-12.83-1.21-15.08-1.21-15.08-8.91,1.71-13.83,9.47-14.13,10,0,0,0,0,0,0l-.45.86c-4.08,8.28-7.35,19-14.35,25.3-2.22,2-4.26,4.16-6.84,6.15a136.55,136.55,0,0,1-15.75,9.9l2.66-4.53,5.32-9q-.52-6.15-1.21-12.62T98.25,38.49q-.51-3.47-.9-6.8c-.25-2.21-.55-4.48-.9-6.79-.08-.68-11.14,14.74-11.14,14.74l4.14,35.64.22,1.9a1.3,1.3,0,0,0,.71,1.12C66.58,90.43,47.18,91.79,46,95.12c-.43,1.2,24.77.89,28.19.64a100.55,100.55,0,0,0,10.19-1.48A49,49,0,0,0,93.25,91.66ZM287.39,71.93A53.12,53.12,0,0,0,298,40.53v-.25q-.64-5.25-1.6-9.94t-2.12-9.41c-.17-.68-10.25,15.12-10.25,15.12.69,3.41,1.3,7,1.86,10.76s1.05,7.44,1.47,11l-.58.58a4.35,4.35,0,0,1-.7.57c-3.51,3.08-7.71,5.31-11.79,8.08a132.47,132.47,0,0,1-11.72,7.06l1.08-1.85,5.26-8.93q-.51-6.15-1.22-12.62c-.46-4.31-1-8.39-1.6-12.23q-.51-3.47-.89-6.8c-.26-2.21-.56-4.48-.9-6.79-.09-.68-11.15,14.74-11.15,14.74l4.13,35.6.17,1.5c-4.25,2.11-8.59,4.08-13.06,6.08-8,3.59-17.52,6-25.52,9.67-.49.23-5.31,2-5.31,2.63,0,1.28,24.81.89,28.31.64q15.76-1.41,26.91-7.75A61,61,0,0,0,287.39,71.93Zm34-61.51c-.09-.76-12.18,14.35-12.18,14.35l3.59,53.05C312.87,78.59,325,63.6,325,63.6Zm23.31,36c0-.6.6-1.28,1.8-2l2.81-1.8q3.72-2.41,7.89-4.93a49,49,0,0,0,7.36-5.32,21.84,21.84,0,0,1-3.33-2.56,5.47,5.47,0,0,1-1.66-4.23,9.51,9.51,0,0,1,1.47-4.8,13.73,13.73,0,0,1,3.78-4.17,8,8,0,0,1,4.74-1.66,4,4,0,0,1,3.53,1.73,6.91,6.91,0,0,1,1.21,4v.64a21.83,21.83,0,0,1-1.15,6.27,31,31,0,0,1-3.72,7.57,29.63,29.63,0,0,1-9.54,7.94,57.12,57.12,0,0,1-13,4.61l-.9.13C345.11,47.84,344.68,47.37,344.68,46.43Zm21.4-23.06c.34.25.68.49,1,.7s.69.45,1,.7v-.51A6.18,6.18,0,0,0,368,23c-.09-.43-.34-.56-.77-.38A1.55,1.55,0,0,0,366.08,23.37Zm2.7,62.78a32,32,0,0,0,4-6.67,76.29,76.29,0,0,0,3.4-8.58,86.56,86.56,0,0,0,2.44-8.72v-.51a2.42,2.42,0,0,0-.8-1.63c-8.22,9.58-18.64,18.57-30.48,23.23-8.33,3.3-17.06,5.21-25.83,6.92a3.93,3.93,0,0,1-.63.13c4.16,5.21,14.22,6.38,18.42,6.64l.26,0,1.64.06h1.15q9.36,0,15.7-3A31.61,31.61,0,0,0,368.78,86.15ZM429.4,23.64c.43,0,10.3-12,11.15-13.14C441,9.73,431.09-.09,430.61,0s-4.35,4.87-6,6.92-3.36,4.14-5.06,6.28C419,13.88,429,23.68,429.4,23.64ZM417.83,73.33q-10.63,4.36-21.65,8.59a164.87,164.87,0,0,0-20.77,9.61,2.48,2.48,0,0,0-1.13,1.91c8.35,3.33,21.93,3.52,21.93,3.52.91,0,1.8-.1,2.66-.18,1.87-.17,3.75-.42,5.63-.77a32,32,0,0,0,11.79-4.93A50.23,50.23,0,0,0,426,82.5a55.36,55.36,0,0,0,7.11-10.19,50.79,50.79,0,0,0,3.33-8.26c.11-.35.21-.7.31-1a60,60,0,0,0,6.55-1.53,26.13,26.13,0,0,0,9.93-5.31,33.7,33.7,0,0,0,4.61-4.8,60.47,60.47,0,0,0,3.85-5.58q3.84-6.15,4.09-15.25a50.43,50.43,0,0,0-2.94-17.43c-.18-.68-12.6,14.48-12.43,15,.69,2.31,1.3,4.43,1.86,6.35a55.3,55.3,0,0,1,1.34,5.83,24.32,24.32,0,0,1-5.7,2.62,37.24,37.24,0,0,1-6.21,1.29l-5.49.69a21.19,21.19,0,0,0-4.38-6.39,12.48,12.48,0,0,0-2.37-1.8,6.12,6.12,0,0,0-3.26-.89,4.79,4.79,0,0,0-3.34,1.66,24.38,24.38,0,0,0-3.84,5.7c-1,2.09-2.05,4.25-3.08,6.47-.59,1.2-1.3,2.59-2.11,4.17a10.18,10.18,0,0,0-1.21,4.67,5.59,5.59,0,0,0,.51,2.56A8.69,8.69,0,0,0,414.37,63v-.12q2.29,2.82,7.94,2.82a17,17,0,0,0,3.72-.38c.16.34.29.64.38.89v.77a.36.36,0,0,0,.13.26v.13A23.77,23.77,0,0,1,417.83,73.33ZM9.28,136.9,8,137.12s.61,3.65.9,7c.1,1.25.18,2.75.24,4.58s.09,3.88.09,6.27v35.65c0,2.9-.08,5.69-.25,8.28a37.27,37.27,0,0,1-1.12,7,29.07,29.07,0,0,1-2.49,6.31,30.64,30.64,0,0,1-4.42,6.07l-.92,1s10.64-2.23,15.41-11a34.24,34.24,0,0,0,3.43-8.42,41.66,41.66,0,0,0,1.22-10.57V153.72c0-2.32,0-4.44.08-6.3s.14-3.37.25-4.67a40.16,40.16,0,0,1,.9-7.8l-1.82.29C16.07,135.78,12.67,136.34,9.28,136.9Zm39.86.9,2.7-.52c.93-.16,1.72-.29,2.38-.38,2-.26,3.72-.41,5.18-.46s2.8,0,3.86,0a25.51,25.51,0,0,1,3.09.26l1.28.19,3.57-10.14-3,1a37.46,37.46,0,0,1-4,.81c-1.91.32-4.28.69-7.46,1.15l-21.55,3.16s.36,3.11.51,3.94.29,1.93.39,3.11.19,2.72.25,4.58c.05,1.57.07,3.45.08,6.27v27.79c0,2.65,0,4.66-.08,6.31s-.14,3.36-.25,4.62-.25,2.4-.39,3.22-.51,4.54-.51,4.54L37,197c6.11-.9,12.29-1.76,18.34-2.56l1.36-.16,2.19-.25,2.2-.25.42,0c.92-.1,1.79-.2,2.61-.27l2.27-.2c.65-.06,1.14-.09,1.46-.1l1.27-.05L71,182l-2.59,1c-2,.78-4.21,1.52-6.58,2.21-2,.6-4.36,1.23-7.26,1.91-2.27.53-4.72,1-7.31,1.4V165c1.43-.17,2.94-.31,4.48-.4,2.16-.13,4-.2,5.69-.23,1.83,0,3.79-.05,6-.05H64.7l2.11-10.12-2.48.69c-1.48.4-3.17.82-5,1.22-1.48.33-3.38.71-6,1.22-1.77.34-3.76.69-6,1V138.16Zm111-17.62-1.48.08s.17,2.86.17,3.06a10.6,10.6,0,0,1-.42,2.61,41.58,41.58,0,0,1-1.4,4.17q-7.62,19.05-15.23,38.18c-5.21-12.25-18.41-37.77-18.41-37.77s-12.12,27.13-16.77,40q-7.26-17.64-14.51-35.21a18.38,18.38,0,0,1-1.17-3.48c-.19-1-.2-6-.2-6L89,126q-5.91.65-11.83,1.33l-1.38.16s1.86,4.81,2.3,5.62,1,1.82,1.46,2.84,1,2.06,1.52,3.28q10.44,24.93,20.91,50l.44,1.07,5.34-.51.34-.93q6.9-19,13.81-37.93c5,11.76,15.51,36.4,15.51,36.4l5.34-.38s15.68-38.27,23.21-56.56c.9-2.11,1.66-3.79,2.3-5.14s2-5.57,2-5.57l-1.65.08C165.78,119.88,163,120,160.12,120.18Zm31,5.58c.87-.09,1.78-.17,2.72-.24s1.73-.11,2.4-.13a48.33,48.33,0,0,1,5.2.09c1.52.11,2.82.24,3.88.38a30.37,30.37,0,0,1,3.12.59l1.37.35.49-1.34,2.1-5.71,1-2.66-2.77.58a32.81,32.81,0,0,1-4,.4c-1.88.11-4.19.23-7.51.37l-9.7.4-12.15.5s.37,3.32.52,4.16.28,1.86.39,3.15.2,2.83.25,4.59.08,4,.08,6.29v27.79c0,2.52,0,4.58-.08,6.3s-.14,3.33-.25,4.59-.25,2.37-.39,3.17-.52,4.32-.52,4.32l1.64-.07c6.16-.25,12.37-.47,18.49-.64l1.09,0,5.1,0h2.62l2.29,0c.65,0,1.14,0,1.47.05l1.39.09,1.94-10.79-2.42.69c-2,.56-4.19,1.07-6.6,1.51-2,.4-4.5.79-7.31,1.16-2.32.29-4.85.51-7.53.64v-23.6c1.41,0,2.87,0,4.37.07,2,.09,3.91.21,5.71.37,2.19.18,4.15.37,6,.57l1.41.16L209,144l-2.28.4c-1.44.25-3.09.48-5,.7-1.65.19-3.65.37-6,.59-1.85.17-3.91.31-6.26.43V125.91Zm61.45,48.51c-2,.33-4.38.62-7.3.9-2.32.22-4.87.34-7.58.38V136.4c0-2.74,0-4.67.1-6.28.07-1.78.16-3.34.26-4.64a29.41,29.41,0,0,1,.36-3.14c.15-.85.52-4.24.52-4.24h-1.57c-3.42,0-6.86,0-10.3,0h-1.55s.37,3.39.51,4.23.28,1.85.39,3.16.2,2.86.25,4.61c.06,2,.09,4.11.09,6.29v27.79c0,2.35,0,4.46-.09,6.29s-.14,3.37-.25,4.59-.24,2.32-.39,3.15-.51,4.25-.51,4.25h1.57c6.21,0,12.43,0,18.49,0l1.37,0,4.83.13c.92,0,1.79,0,2.63.1l2.29.12c.65,0,1.14.07,1.47.1l1.44.14,1.93-10.7-2.35.58C257.16,173.49,255,173.92,252.55,174.27Zm45.67,1.32c-2,.27-4.43.48-7.3.66-2.35.13-4.91.18-7.63.12v-39.2c0-2.47,0-4.52.11-6.27s.15-3.29.25-4.63.22-2.33.36-3.14.52-4.17.52-4.17l-1.51,0c-3.43-.12-6.87-.22-10.3-.32l-1.61,0s.37,3.47.52,4.28.28,2,.39,3.19.19,2.85.25,4.62.09,4,.09,6.29v27.79c0,2.2,0,4.31-.09,6.29,0,1.65-.13,3.19-.25,4.58-.11,1.22-.24,2.28-.39,3.13s-.52,4.19-.52,4.19l1.53,0c6.23.17,12.45.38,18.53.62l1.31.08,4.85.29,2.61.19,2.28.19c.66.06,1.15.11,1.48.16l1.48.19L307.11,174l-2.3.49C302.85,175,300.64,175.31,298.22,175.59Zm32.2-47.28c.88,0,1.78,0,2.73,0s1.71.06,2.38.11a49.31,49.31,0,0,1,5.2.62c1.51.27,2.81.53,3.87.78s2.24.59,3.13.9l1.45.52,3.55-9.34-2.55.28a31.46,31.46,0,0,1-4,0c-1.89-.08-4.2-.2-7.49-.4l-9.69-.58-12.29-.74s.79,6.26.9,7.55.2,2.86.25,4.62c.06,1.92.09,4,.09,6.3v27.79c0,2.57,0,4.63-.09,6.29s-.14,3.32-.25,4.56-.24,2.31-.38,3.13-.52,4.12-.52,4.12l1.47.09c6.12.37,12.34.78,18.45,1.23l1.36.13,2.2.2,1.64.16,1,.09,2.62.27,2.27.27c.66.08,1.15.15,1.48.21l1.52.25,1.92-10.56-2.23.4c-2,.36-4.15.64-6.58.84-2,.2-4.4.33-7.29.41-2.35.07-4.92,0-7.67-.13V155.12c1.38.13,2.79.29,4.2.5,2.13.31,4,.62,5.71.95,1.91.35,3.87.74,6,1.19l1.53.32,2.1-9.65-2.09.15c-1.46.1-3.16.16-5,.18-1.58,0-3.54,0-6,0-1.88,0-4-.09-6.41-.22V128.29ZM412,188.68c.51.54,3.79,5.66,3.79,5.66L414,194.1q-6.13-.81-12.29-1.56l-1.18-.14-.18-1.18a6.81,6.81,0,0,0-.69-1.8,26,26,0,0,0-1.54-2.7q-7.32-11.22-14.65-22.34l-1.16,0c-.66,0-1.35-.07-2.11-.15s-1.7-.21-2.53-.36l-.6-.11v7.62c0,2.41,0,4.53.1,6.29s.16,3.35.26,4.64.22,2.36.36,3.17.31,1.59.46,2.12l.06.21v2.13l-1.73-.18c-3.41-.35-6.83-.69-10.24-1l-1.42-.14s.37-3.23.52-4,.26-1.79.36-3.1.18-2.84.26-4.57c.07-1.91.1-4,.1-6.29V142.76c0-2.36,0-4.47-.1-6.29s-.16-3.36-.26-4.64-.21-2.32-.36-3.2-.52-4.62-.52-4.62l3.66.7q.72.15,1.71.27c.66.08,1.34.16,2,.22a31.85,31.85,0,0,0,4.29,0,51.56,51.56,0,0,1,7.47.37,27.19,27.19,0,0,1,8,2.08,21.86,21.86,0,0,1,6.49,4.25,19,19,0,0,1,4.34,6.21,19.48,19.48,0,0,1,1.56,7.83,20.32,20.32,0,0,1-.86,6.07,16.84,16.84,0,0,1-2.45,4.95,16,16,0,0,1-3.8,3.72,18.25,18.25,0,0,1-3,1.71q7,10.58,13.9,21.23c.7,1.09,1.38,2.07,2,2.9A27.26,27.26,0,0,0,412,188.68Zm-19.19-43.37a21.37,21.37,0,0,0-.67-5.48,13,13,0,0,0-1.91-4.16,9.6,9.6,0,0,0-3.12-2.78,11.14,11.14,0,0,0-4.46-1.36,27.1,27.1,0,0,0-4.42-.2c-.45,0-.84.07-1.18.11v25.78c.35.09.71.17,1.07.24.75.14,1.47.25,2.18.33a15.19,15.19,0,0,0,5.29-.29,8.53,8.53,0,0,0,3.81-2,10.16,10.16,0,0,0,2.48-4A18.22,18.22,0,0,0,392.79,145.31Zm72.45,1.29c1.15-1.48,6.2-8.11,6.2-8.11l-1.28-.23-8.27-1.4-1.82-.31v1.85a2,2,0,0,1-.22.75,11.9,11.9,0,0,1-.84,1.51c-.32.5-.75,1.15-1.27,1.85s-1,1.29-1.42,1.91q-6.13,8-12.28,16.09-6.36-9.72-12.72-19.37a26.66,26.66,0,0,1-2.84-5.37,10.19,10.19,0,0,1-.74-2.81v-1.37l-1.36-.19q-6.45-.9-12.91-1.75l-1.74-.23s5.94,9.3,6.58,10.25c6.17,9.26,12.48,18.77,18.74,28.26v11.35c0,2.63,0,4.62-.1,6.27s-.15,3.23-.26,4.58a30.44,30.44,0,0,1-.36,3.07c-.14.78-.51,4-.51,4l1.34.2c3.39.5,6.79,1,10.18,1.55l1.81.28s-.79-6.5-.9-7.78-.18-2.77-.25-4.63-.08-3.84-.08-6.31V168.33Q456.58,157.43,465.24,146.6ZM450.18,87.34c-6.19,9.32-10.6,13.51-20.67,20.08,8.45,4.24,13.52,17.67,14.48,19a0,0,0,0,0,0,0c.06.09.11.12.13.08,5.75-8.41,10.22-14.35,20.81-20C456.81,101.05,455.43,99.22,450.18,87.34Zm14.67,19.26-.23.22.11-.1Z"/></g></g></svg>